<mxfile host="65bd71144e">
    <diagram id="5UjpsKBqhVt2e8HWz5ih" name="Page-1">
        <mxGraphModel dx="999" dy="804" grid="1" gridSize="10" guides="1" tooltips="1" connect="1" arrows="1" fold="1" page="1" pageScale="1" pageWidth="2339" pageHeight="3300" math="0" shadow="0">
            <root>
                <mxCell id="0"/>
                <mxCell id="1" parent="0"/>
                <mxCell id="1M9SfSNusY-97w26e2uW-1" style="edgeStyle=orthogonalEdgeStyle;rounded=0;orthogonalLoop=1;jettySize=auto;html=1;entryX=0.175;entryY=0.017;entryDx=0;entryDy=0;entryPerimeter=0;" parent="1" source="1M9SfSNusY-97w26e2uW-10" target="1M9SfSNusY-97w26e2uW-16" edge="1">
                    <mxGeometry relative="1" as="geometry">
                        <Array as="points">
                            <mxPoint x="560" y="2341"/>
                        </Array>
                    </mxGeometry>
                </mxCell>
                <mxCell id="1M9SfSNusY-97w26e2uW-2" value="n:m" style="edgeLabel;html=1;align=center;verticalAlign=middle;resizable=0;points=[];" parent="1M9SfSNusY-97w26e2uW-1" vertex="1" connectable="0">
                    <mxGeometry x="-0.4571" y="-1" relative="1" as="geometry">
                        <mxPoint as="offset"/>
                    </mxGeometry>
                </mxCell>
                <mxCell id="1M9SfSNusY-97w26e2uW-3" style="edgeStyle=orthogonalEdgeStyle;rounded=0;orthogonalLoop=1;jettySize=auto;html=1;" parent="1" source="1M9SfSNusY-97w26e2uW-10" target="1M9SfSNusY-97w26e2uW-15" edge="1">
                    <mxGeometry relative="1" as="geometry"/>
                </mxCell>
                <mxCell id="1M9SfSNusY-97w26e2uW-4" value="1:n" style="edgeLabel;html=1;align=center;verticalAlign=middle;resizable=0;points=[];" parent="1M9SfSNusY-97w26e2uW-3" vertex="1" connectable="0">
                    <mxGeometry x="-0.1708" y="-1" relative="1" as="geometry">
                        <mxPoint as="offset"/>
                    </mxGeometry>
                </mxCell>
                <mxCell id="1M9SfSNusY-97w26e2uW-5" style="edgeStyle=orthogonalEdgeStyle;rounded=0;orthogonalLoop=1;jettySize=auto;html=1;entryX=0.5;entryY=0;entryDx=0;entryDy=0;" parent="1" source="1M9SfSNusY-97w26e2uW-10" target="1M9SfSNusY-97w26e2uW-21" edge="1">
                    <mxGeometry relative="1" as="geometry"/>
                </mxCell>
                <mxCell id="1M9SfSNusY-97w26e2uW-6" value="1:n" style="edgeLabel;html=1;align=center;verticalAlign=middle;resizable=0;points=[];" parent="1M9SfSNusY-97w26e2uW-5" vertex="1" connectable="0">
                    <mxGeometry x="-0.5469" y="-3" relative="1" as="geometry">
                        <mxPoint as="offset"/>
                    </mxGeometry>
                </mxCell>
                <mxCell id="1M9SfSNusY-97w26e2uW-7" style="edgeStyle=orthogonalEdgeStyle;rounded=0;orthogonalLoop=1;jettySize=auto;html=1;entryX=1;entryY=0.5;entryDx=0;entryDy=0;" parent="1" source="1M9SfSNusY-97w26e2uW-10" target="1M9SfSNusY-97w26e2uW-34" edge="1">
                    <mxGeometry relative="1" as="geometry">
                        <Array as="points">
                            <mxPoint x="640" y="2220"/>
                            <mxPoint x="640" y="2640"/>
                        </Array>
                    </mxGeometry>
                </mxCell>
                <mxCell id="1M9SfSNusY-97w26e2uW-8" value="1:1" style="edgeLabel;html=1;align=center;verticalAlign=middle;resizable=0;points=[];" parent="1M9SfSNusY-97w26e2uW-7" vertex="1" connectable="0">
                    <mxGeometry x="0.5227" y="4" relative="1" as="geometry">
                        <mxPoint as="offset"/>
                    </mxGeometry>
                </mxCell>
                <mxCell id="1M9SfSNusY-97w26e2uW-10" value="Cases" style="rounded=0;whiteSpace=wrap;html=1;" parent="1" vertex="1">
                    <mxGeometry x="500" y="2180" width="120" height="60" as="geometry"/>
                </mxCell>
                <mxCell id="1M9SfSNusY-97w26e2uW-11" style="edgeStyle=orthogonalEdgeStyle;rounded=0;orthogonalLoop=1;jettySize=auto;html=1;entryX=0;entryY=0.25;entryDx=0;entryDy=0;" parent="1" source="1M9SfSNusY-97w26e2uW-15" target="1M9SfSNusY-97w26e2uW-16" edge="1">
                    <mxGeometry relative="1" as="geometry">
                        <Array as="points">
                            <mxPoint x="500" y="2355"/>
                            <mxPoint x="500" y="2355"/>
                        </Array>
                    </mxGeometry>
                </mxCell>
                <mxCell id="1M9SfSNusY-97w26e2uW-12" value="n:m" style="edgeLabel;html=1;align=center;verticalAlign=middle;resizable=0;points=[];" parent="1M9SfSNusY-97w26e2uW-11" vertex="1" connectable="0">
                    <mxGeometry x="-0.329" y="-1" relative="1" as="geometry">
                        <mxPoint x="23" as="offset"/>
                    </mxGeometry>
                </mxCell>
                <mxCell id="1M9SfSNusY-97w26e2uW-13" style="edgeStyle=orthogonalEdgeStyle;rounded=0;orthogonalLoop=1;jettySize=auto;html=1;entryX=0.5;entryY=1;entryDx=0;entryDy=0;" parent="1" source="1M9SfSNusY-97w26e2uW-15" target="1M9SfSNusY-97w26e2uW-21" edge="1">
                    <mxGeometry relative="1" as="geometry">
                        <Array as="points">
                            <mxPoint x="150" y="2720"/>
                            <mxPoint x="980" y="2720"/>
                        </Array>
                    </mxGeometry>
                </mxCell>
                <mxCell id="1M9SfSNusY-97w26e2uW-14" value="n:m" style="edgeLabel;html=1;align=center;verticalAlign=middle;resizable=0;points=[];" parent="1M9SfSNusY-97w26e2uW-13" vertex="1" connectable="0">
                    <mxGeometry x="0.0136" relative="1" as="geometry">
                        <mxPoint as="offset"/>
                    </mxGeometry>
                </mxCell>
                <mxCell id="1M9SfSNusY-97w26e2uW-15" value="Activity" style="rounded=0;whiteSpace=wrap;html=1;" parent="1" vertex="1">
                    <mxGeometry x="90" y="2340" width="120" height="60" as="geometry"/>
                </mxCell>
                <mxCell id="1M9SfSNusY-97w26e2uW-16" value="Person" style="rounded=0;whiteSpace=wrap;html=1;" parent="1" vertex="1">
                    <mxGeometry x="500" y="2340" width="120" height="60" as="geometry"/>
                </mxCell>
                <mxCell id="1M9SfSNusY-97w26e2uW-17" style="edgeStyle=orthogonalEdgeStyle;rounded=0;orthogonalLoop=1;jettySize=auto;html=1;" parent="1" source="1M9SfSNusY-97w26e2uW-21" edge="1">
                    <mxGeometry relative="1" as="geometry">
                        <mxPoint x="620" y="2360" as="targetPoint"/>
                        <Array as="points">
                            <mxPoint x="620" y="2360"/>
                        </Array>
                    </mxGeometry>
                </mxCell>
                <mxCell id="1M9SfSNusY-97w26e2uW-18" value="n:m" style="edgeLabel;html=1;align=center;verticalAlign=middle;resizable=0;points=[];" parent="1M9SfSNusY-97w26e2uW-17" vertex="1" connectable="0">
                    <mxGeometry x="-0.2968" y="-1" relative="1" as="geometry">
                        <mxPoint as="offset"/>
                    </mxGeometry>
                </mxCell>
                <mxCell id="1M9SfSNusY-97w26e2uW-19" style="edgeStyle=orthogonalEdgeStyle;rounded=0;orthogonalLoop=1;jettySize=auto;html=1;entryX=0.25;entryY=1;entryDx=0;entryDy=0;" parent="1" source="1M9SfSNusY-97w26e2uW-21" target="1M9SfSNusY-97w26e2uW-29" edge="1">
                    <mxGeometry relative="1" as="geometry">
                        <Array as="points">
                            <mxPoint x="950" y="2690"/>
                            <mxPoint x="310" y="2690"/>
                        </Array>
                    </mxGeometry>
                </mxCell>
                <mxCell id="1M9SfSNusY-97w26e2uW-20" value="1:1" style="edgeLabel;html=1;align=center;verticalAlign=middle;resizable=0;points=[];" parent="1M9SfSNusY-97w26e2uW-19" vertex="1" connectable="0">
                    <mxGeometry x="-0.0537" y="2" relative="1" as="geometry">
                        <mxPoint as="offset"/>
                    </mxGeometry>
                </mxCell>
                <mxCell id="1M9SfSNusY-97w26e2uW-21" value="Object" style="rounded=0;whiteSpace=wrap;html=1;" parent="1" vertex="1">
                    <mxGeometry x="920" y="2340" width="120" height="60" as="geometry"/>
                </mxCell>
                <mxCell id="1M9SfSNusY-97w26e2uW-22" style="edgeStyle=orthogonalEdgeStyle;rounded=0;orthogonalLoop=1;jettySize=auto;html=1;entryX=1;entryY=0.75;entryDx=0;entryDy=0;" parent="1" source="1M9SfSNusY-97w26e2uW-26" target="1M9SfSNusY-97w26e2uW-16" edge="1">
                    <mxGeometry relative="1" as="geometry">
                        <Array as="points">
                            <mxPoint x="740" y="2385"/>
                        </Array>
                    </mxGeometry>
                </mxCell>
                <mxCell id="1M9SfSNusY-97w26e2uW-23" value="1:n" style="edgeLabel;html=1;align=center;verticalAlign=middle;resizable=0;points=[];" parent="1M9SfSNusY-97w26e2uW-22" vertex="1" connectable="0">
                    <mxGeometry x="-0.2444" relative="1" as="geometry">
                        <mxPoint as="offset"/>
                    </mxGeometry>
                </mxCell>
                <mxCell id="1M9SfSNusY-97w26e2uW-24" style="edgeStyle=orthogonalEdgeStyle;rounded=0;orthogonalLoop=1;jettySize=auto;html=1;" parent="1" source="1M9SfSNusY-97w26e2uW-26" edge="1">
                    <mxGeometry relative="1" as="geometry">
                        <mxPoint x="620" y="2230" as="targetPoint"/>
                        <Array as="points">
                            <mxPoint x="770" y="2230"/>
                            <mxPoint x="620" y="2230"/>
                        </Array>
                    </mxGeometry>
                </mxCell>
                <mxCell id="1M9SfSNusY-97w26e2uW-25" value="1:1" style="edgeLabel;html=1;align=center;verticalAlign=middle;resizable=0;points=[];" parent="1M9SfSNusY-97w26e2uW-24" vertex="1" connectable="0">
                    <mxGeometry x="-0.2048" y="-1" relative="1" as="geometry">
                        <mxPoint as="offset"/>
                    </mxGeometry>
                </mxCell>
                <mxCell id="1M9SfSNusY-97w26e2uW-26" value="Leads" style="rounded=0;whiteSpace=wrap;html=1;" parent="1" vertex="1">
                    <mxGeometry x="720" y="2480" width="120" height="60" as="geometry"/>
                </mxCell>
                <mxCell id="1M9SfSNusY-97w26e2uW-27" style="edgeStyle=orthogonalEdgeStyle;rounded=0;orthogonalLoop=1;jettySize=auto;html=1;entryX=0;entryY=0.75;entryDx=0;entryDy=0;" parent="1" source="1M9SfSNusY-97w26e2uW-29" target="1M9SfSNusY-97w26e2uW-16" edge="1">
                    <mxGeometry relative="1" as="geometry">
                        <Array as="points">
                            <mxPoint x="340" y="2385"/>
                        </Array>
                    </mxGeometry>
                </mxCell>
                <mxCell id="1M9SfSNusY-97w26e2uW-28" value="1:1" style="edgeLabel;html=1;align=center;verticalAlign=middle;resizable=0;points=[];" parent="1M9SfSNusY-97w26e2uW-27" vertex="1" connectable="0">
                    <mxGeometry x="-0.3156" y="3" relative="1" as="geometry">
                        <mxPoint as="offset"/>
                    </mxGeometry>
                </mxCell>
                <mxCell id="1M9SfSNusY-97w26e2uW-29" value="Location" style="rounded=0;whiteSpace=wrap;html=1;" parent="1" vertex="1">
                    <mxGeometry x="280" y="2480" width="120" height="60" as="geometry"/>
                </mxCell>
                <mxCell id="1M9SfSNusY-97w26e2uW-30" style="edgeStyle=orthogonalEdgeStyle;rounded=0;orthogonalLoop=1;jettySize=auto;html=1;entryX=0.25;entryY=1;entryDx=0;entryDy=0;" parent="1" source="1M9SfSNusY-97w26e2uW-34" target="1M9SfSNusY-97w26e2uW-16" edge="1">
                    <mxGeometry relative="1" as="geometry">
                        <Array as="points">
                            <mxPoint x="530" y="2560"/>
                            <mxPoint x="530" y="2560"/>
                        </Array>
                    </mxGeometry>
                </mxCell>
                <mxCell id="1M9SfSNusY-97w26e2uW-31" value="n:m" style="edgeLabel;html=1;align=center;verticalAlign=middle;resizable=0;points=[];" parent="1M9SfSNusY-97w26e2uW-30" vertex="1" connectable="0">
                    <mxGeometry x="-0.3048" y="-4" relative="1" as="geometry">
                        <mxPoint as="offset"/>
                    </mxGeometry>
                </mxCell>
                <mxCell id="1M9SfSNusY-97w26e2uW-32" style="edgeStyle=orthogonalEdgeStyle;rounded=0;orthogonalLoop=1;jettySize=auto;html=1;entryX=0.5;entryY=1;entryDx=0;entryDy=0;" parent="1" source="1M9SfSNusY-97w26e2uW-34" target="1M9SfSNusY-97w26e2uW-29" edge="1">
                    <mxGeometry relative="1" as="geometry">
                        <Array as="points">
                            <mxPoint x="370" y="2640"/>
                            <mxPoint x="370" y="2540"/>
                        </Array>
                    </mxGeometry>
                </mxCell>
                <mxCell id="1M9SfSNusY-97w26e2uW-33" value="1:1" style="edgeLabel;html=1;align=center;verticalAlign=middle;resizable=0;points=[];" parent="1M9SfSNusY-97w26e2uW-32" vertex="1" connectable="0">
                    <mxGeometry x="-0.2846" y="3" relative="1" as="geometry">
                        <mxPoint as="offset"/>
                    </mxGeometry>
                </mxCell>
                <mxCell id="1M9SfSNusY-97w26e2uW-34" value="Incidents" style="rounded=0;whiteSpace=wrap;html=1;" parent="1" vertex="1">
                    <mxGeometry x="500" y="2610" width="120" height="60" as="geometry"/>
                </mxCell>
            </root>
        </mxGraphModel>
    </diagram>
</mxfile>